<svg viewBox="0 0 512 512" xmlns="http://www.w3.org/2000/svg">
  <!-- Логотип: фирменный burst dvxch (белым) на пастельно-фиолетовой плитке. -->
  <defs>
    <linearGradient id="tile" x1="0" y1="0" x2="1" y2="1">
      <stop offset="0" stop-color="#a78bfa"/>
      <stop offset="1" stop-color="#7c5cf0"/>
    </linearGradient>
  </defs>
  <rect width="512" height="512" rx="116" fill="url(#tile)"/>
  <g transform="translate(64,64) scale(0.75)">
    <g transform="translate(0.000000,512.000000) scale(0.100000,-0.100000)" fill="#ffffff">
      <path d="M3021 4298 l-8 -23 -224 -627 -223 -628 -6 0 -6 0 -124 261 -125 261
-9 5 -8 6 5 -29 6 -29 6 -105 6 -105 4 -35 4 -35 6 -105 6 -105 5 -29 5 -29
-18 14 -17 14 -621 549 -620 550 -75 65 -75 65 26 -29 26 -30 589 -665 589
-666 14 -17 14 -18 -44 5 -44 5 -67 6 -68 5 -67 5 -68 6 -40 4 -40 4 -95 6
-95 7 65 -32 65 -32 80 -38 80 -38 140 -66 139 -67 -537 -201 -537 -202 3 -2
2 -3 560 93 560 93 3 -2 3 -2 -144 -219 -143 -219 -9 -14 -8 -14 14 8 14 9
219 143 219 144 1 -3 2 -3 -178 -875 -177 -875 2 -7 2 -7 284 845 285 845 6 4
7 5 133 -293 133 -292 10 -10 9 -10 -5 30 -6 30 -6 75 -7 75 -3 25 -3 25 -7
85 -7 85 -3 15 -3 15 -7 90 -7 90 -4 18 -3 19 17 -14 17 -13 490 -419 490
-419 60 -51 60 -51 -51 60 -51 60 -419 490 -419 490 -15 19 -14 18 34 -5 35
-5 120 -7 120 -7 15 -3 15 -3 120 -7 120 -7 8 -5 7 -4 0 10 0 11 -9 0 -8 0
-214 103 -214 103 -45 21 -45 21 15 6 15 5 895 295 895 294 38 12 38 12 -3 3
-3 3 -970 -202 -970 -203 -3 2 -3 2 144 219 143 219 9 14 8 14 -14 -8 -14 -9
-219 -143 -219 -144 -1 3 -2 3 126 683 126 682 -3 0 -3 0 -9 -22z"/>
    </g>
  </g>
</svg>
