<svg xmlns="http://www.w3.org/2000/svg" viewBox="0 0 1280 360" width="1280" height="360" font-family="-apple-system, BlinkMacSystemFont, 'Segoe UI', Roboto, Helvetica, Arial, sans-serif">
  <defs>
    <linearGradient id="bg" x1="0" y1="0" x2="1" y2="1">
      <stop offset="0" stop-color="#16121f"/>
      <stop offset="0.55" stop-color="#1c1830"/>
      <stop offset="1" stop-color="#271c3d"/>
    </linearGradient>
    <radialGradient id="glow" cx="0.5" cy="0.5" r="0.5">
      <stop offset="0" stop-color="#a78bfa" stop-opacity="0.55"/>
      <stop offset="1" stop-color="#a78bfa" stop-opacity="0"/>
    </radialGradient>
    <linearGradient id="wm" x1="0" y1="0" x2="1" y2="0.4">
      <stop offset="0" stop-color="#c4b5fd"/>
      <stop offset="0.55" stop-color="#a78bfa"/>
      <stop offset="1" stop-color="#f0abfc"/>
    </linearGradient>
    <linearGradient id="mark" x1="0" y1="0" x2="1" y2="1">
      <stop offset="0" stop-color="#d6c8ff"/>
      <stop offset="1" stop-color="#f0abfc"/>
    </linearGradient>
  </defs>

  <rect width="1280" height="360" rx="28" fill="url(#bg)"/>
  <circle cx="210" cy="180" r="240" fill="url(#glow)"/>
  <circle cx="1120" cy="60" r="180" fill="url(#glow)" opacity="0.35"/>

  <!-- знак dvxch -->
  <g transform="translate(95,75) scale(0.41)">
    <g transform="translate(0.000000,512.000000) scale(0.100000,-0.100000)" fill="url(#mark)">
      <path d="M3021 4298 l-8 -23 -224 -627 -223 -628 -6 0 -6 0 -124 261 -125 261
-9 5 -8 6 5 -29 6 -29 6 -105 6 -105 4 -35 4 -35 6 -105 6 -105 5 -29 5 -29
-18 14 -17 14 -621 549 -620 550 -75 65 -75 65 26 -29 26 -30 589 -665 589
-666 14 -17 14 -18 -44 5 -44 5 -67 6 -68 5 -67 5 -68 6 -40 4 -40 4 -95 6
-95 7 65 -32 65 -32 80 -38 80 -38 140 -66 139 -67 -537 -201 -537 -202 3 -2
2 -3 560 93 560 93 3 -2 3 -2 -144 -219 -143 -219 -9 -14 -8 -14 14 8 14 9
219 143 219 144 1 -3 2 -3 -178 -875 -177 -875 2 -7 2 -7 284 845 285 845 6 4
7 5 133 -293 133 -292 10 -10 9 -10 -5 30 -6 30 -6 75 -7 75 -3 25 -3 25 -7
85 -7 85 -3 15 -3 15 -7 90 -7 90 -4 18 -3 19 17 -14 17 -13 490 -419 490
-419 60 -51 60 -51 -51 60 -51 60 -419 490 -419 490 -15 19 -14 18 34 -5 35
-5 120 -7 120 -7 15 -3 15 -3 120 -7 120 -7 8 -5 7 -4 0 10 0 11 -9 0 -8 0
-214 103 -214 103 -45 21 -45 21 15 6 15 5 895 295 895 294 38 12 38 12 -3 3
-3 3 -970 -202 -970 -203 -3 2 -3 2 144 219 143 219 9 14 8 14 -14 -8 -14 -9
-219 -143 -219 -144 -1 3 -2 3 126 683 126 682 -3 0 -3 0 -9 -22z"/>
    </g>
  </g>

  <!-- вордмарк + тэглайн -->
  <text x="408" y="120" font-size="30" font-weight="600" fill="#b9a8f0" letter-spacing="1">@dvxch/</text>
  <text x="404" y="192" font-size="78" font-weight="800" fill="url(#wm)" letter-spacing="-2">yandex-music</text>
  <text x="408" y="244" font-size="26" font-weight="500" fill="#dcd5f2">Типизированный async-клиент API Яндекс Музыки на TypeScript</text>
  <text x="408" y="278" font-size="18" font-weight="500" fill="#988fbb">zero runtime deps · ESM · Node ≥ 20 · полные декларации типов</text>

  <!-- фичи -->
  <g font-size="16" font-weight="600" fill="#ddd2fb" text-anchor="middle">
    <rect x="408" y="300" width="172" height="34" rx="17" fill="#a78bfa" fill-opacity="0.16" stroke="#7c6bb0"/>
    <text x="494" y="322">FLAC lossless</text>
    <rect x="592" y="300" width="190" height="34" rx="17" fill="#a78bfa" fill-opacity="0.16" stroke="#7c6bb0"/>
    <text x="687" y="322">Ynison realtime</text>
    <rect x="794" y="300" width="168" height="34" rx="17" fill="#a78bfa" fill-opacity="0.16" stroke="#7c6bb0"/>
    <text x="878" y="322">device-flow auth</text>
  </g>
</svg>
