<svg xmlns="http://www.w3.org/2000/svg" viewBox="0 0 1280 320" width="1280" height="320" font-family="Inter, -apple-system, BlinkMacSystemFont, 'Segoe UI', Roboto, Helvetica, Arial, sans-serif">
  <defs>
    <linearGradient id="bg" x1="0" y1="0" x2="0" y2="1">
      <stop offset="0" stop-color="#16131f"/>
      <stop offset="1" stop-color="#121019"/>
    </linearGradient>
    <radialGradient id="glow" cx="0.2" cy="0.5" r="0.55">
      <stop offset="0" stop-color="#a78bfa" stop-opacity="0.18"/>
      <stop offset="1" stop-color="#a78bfa" stop-opacity="0"/>
    </radialGradient>
    <linearGradient id="wm" x1="0" y1="0" x2="1" y2="0">
      <stop offset="0" stop-color="#c8baff"/>
      <stop offset="1" stop-color="#a78bfa"/>
    </linearGradient>
  </defs>

  <rect width="1280" height="320" rx="24" fill="url(#bg)"/>
  <circle cx="240" cy="160" r="300" fill="url(#glow)"/>

  <!-- знак dvxch -->
  <g transform="translate(112,62) scale(0.385)">
    <g transform="translate(0.000000,512.000000) scale(0.100000,-0.100000)" fill="#c4b5fd">
      <path d="M3021 4298 l-8 -23 -224 -627 -223 -628 -6 0 -6 0 -124 261 -125 261
-9 5 -8 6 5 -29 6 -29 6 -105 6 -105 4 -35 4 -35 6 -105 6 -105 5 -29 5 -29
-18 14 -17 14 -621 549 -620 550 -75 65 -75 65 26 -29 26 -30 589 -665 589
-666 14 -17 14 -18 -44 5 -44 5 -67 6 -68 5 -67 5 -68 6 -40 4 -40 4 -95 6
-95 7 65 -32 65 -32 80 -38 80 -38 140 -66 139 -67 -537 -201 -537 -202 3 -2
2 -3 560 93 560 93 3 -2 3 -2 -144 -219 -143 -219 -9 -14 -8 -14 14 8 14 9
219 143 219 144 1 -3 2 -3 -178 -875 -177 -875 2 -7 2 -7 284 845 285 845 6 4
7 5 133 -293 133 -292 10 -10 9 -10 -5 30 -6 30 -6 75 -7 75 -3 25 -3 25 -7
85 -7 85 -3 15 -3 15 -7 90 -7 90 -4 18 -3 19 17 -14 17 -13 490 -419 490
-419 60 -51 60 -51 -51 60 -51 60 -419 490 -419 490 -15 19 -14 18 34 -5 35
-5 120 -7 120 -7 15 -3 15 -3 120 -7 120 -7 8 -5 7 -4 0 10 0 11 -9 0 -8 0
-214 103 -214 103 -45 21 -45 21 15 6 15 5 895 295 895 294 38 12 38 12 -3 3
-3 3 -970 -202 -970 -203 -3 2 -3 2 144 219 143 219 9 14 8 14 -14 -8 -14 -9
-219 -143 -219 -144 -1 3 -2 3 126 683 126 682 -3 0 -3 0 -9 -22z"/>
    </g>
  </g>

  <!-- вордмарк + одна строка-описание -->
  <text x="356" y="146" font-size="28" font-weight="500" fill="#8a80ab" letter-spacing="0.5">@dvxch/</text>
  <text x="352" y="212" font-size="74" font-weight="800" fill="url(#wm)" letter-spacing="-2.5">yandex-music</text>
  <text x="356" y="252" font-size="22" font-weight="400" fill="#9a92ba" letter-spacing="0.2">Типизированный клиент API Яндекс Музыки на TypeScript</text>
</svg>
